# xmcd CD database file
#
# Track frame offsets:
#	150
#	18633
#	35205
#	54298
#	73895
#	86203
#	101675
#	118283
#	135203
#	156945
#	178350
#	205675
#
# Disc length: 2965 seconds
#
# Revision: 3
# Processed by: cddbd v1.5.2PL0 Copyright (c) Steve Scherf et al.
# Submitted via: CDex 1.51
#
DISCID=b10b930c
DTITLE=Valensia - Gaia II
DYEAR=2000
DGENRE=Rock
TTITLE0=Mayke and Veronique
TTITLE1=Bruxelles
TTITLE2=Acquelcuela
TTITLE3=Michelle Mambo
TTITLE4=Ley Park
TTITLE5=Electric Lady House
TTITLE6=Realm Of Nature
TTITLE7=Cleleste
TTITLE8=Illsia
TTITLE9=Einstein
TTITLE10=Phantom Of The Opera
TTITLE11=Requieme Pour Jacqueline
EXTD=YEAR: 2000
EXTT0=
EXTT1=
EXTT2=
EXTT3=
EXTT4=
EXTT5=
EXTT6=
EXTT7=
EXTT8=
EXTT9=
EXTT10=
EXTT11=
PLAYORDER=
